<!--?xml version="1.0" standalone="no"?-->
              <svg id="sw-js-blob-svg" viewBox="0 0 100 100" xmlns="http://www.w3.org/2000/svg" version="1.1">
                    <defs> 
                        <linearGradient id="sw-gradient" x1="0" x2="1" y1="1" y2="0">
                            <stop id="stop1" stop-color="rgba(248, 117, 55, 1)" offset="0%"></stop>
                            <stop id="stop2" stop-color="rgba(251, 168, 31, 1)" offset="100%"></stop>
                        </linearGradient>
                    </defs>
                <path fill="url(#sw-gradient)" d="M21.6,-26.7C27.1,-21.2,30,-13.5,31.3,-5.6C32.5,2.2,32.1,10.3,28.4,16.1C24.7,22,17.7,25.6,9.9,29.5C2.1,33.3,-6.5,37.3,-15.3,36.5C-24.2,35.7,-33.2,30.1,-38.4,21.8C-43.5,13.6,-44.8,2.7,-41.3,-5.6C-37.9,-14,-29.8,-19.9,-22.1,-25.1C-14.5,-30.3,-7.2,-34.7,0.4,-35.2C8.1,-35.7,16.2,-32.3,21.6,-26.7Z" width="100%" height="100%" transform="translate(50 50)" stroke-width="0" style="transition: all 0.3s ease 0s;"></path>
              </svg>