<?xml version="1.0" encoding="UTF-8" standalone="no"?>
<!DOCTYPE svg PUBLIC "-//W3C//DTD SVG 1.1//EN" "http://www.w3.org/Graphics/SVG/1.1/DTD/svg11.dtd">
<svg width="100%" height="100%" viewBox="0 0 1024 786" version="1.1" xmlns="http://www.w3.org/2000/svg" xmlns:xlink="http://www.w3.org/1999/xlink" xml:space="preserve" xmlns:serif="http://www.serif.com/" style="fill-rule:evenodd;clip-rule:evenodd;stroke-linejoin:round;stroke-miterlimit:2;">
    <g id="blob" transform="matrix(1,0,0,1,971.181,537.825)">
        <g transform="matrix(1,0,0,1,-50,-50)">
            <g transform="matrix(1,0,0,1,50,50)">
                <path d="M21.6,-26.7C27.1,-21.2 30,-13.5 31.3,-5.6C32.5,2.2 32.1,10.3 28.4,16.1C24.7,22 17.7,25.6 9.9,29.5C2.1,33.3 -6.5,37.3 -15.3,36.5C-24.2,35.7 -33.2,30.1 -38.4,21.8C-43.5,13.6 -44.8,2.7 -41.3,-5.6C-37.9,-14 -29.8,-19.9 -22.1,-25.1C-14.5,-30.3 -7.2,-34.7 0.4,-35.2C8.1,-35.7 16.2,-32.3 21.6,-26.7Z" style="fill:url(#_Linear1);fill-rule:nonzero;"/>
            </g>
        </g>
    </g>
    <g transform="matrix(3.14459,0,0,2.66918,276.302,225.061)">
        <path d="M56.7,-55.4C71.3,-42 79.6,-21 78,-1.6C76.3,17.8 64.8,35.5 50.2,49.1C35.5,62.7 17.8,72.1 -1.8,73.9C-21.4,75.8 -42.8,70 -58,56.4C-73.1,42.8 -81.9,21.4 -82.2,-0.3C-82.5,-21.9 -74.1,-43.9 -59,-57.2C-43.9,-70.6 -21.9,-75.3 -0.5,-74.9C21,-74.4 42,-68.7 56.7,-55.4Z" style="fill:rgb(255,159,29);fill-rule:nonzero;"/>
    </g>
    <defs>
        <linearGradient id="_Linear1" x1="0" y1="0" x2="1" y2="0" gradientUnits="userSpaceOnUse" gradientTransform="matrix(1,-1,1,1,0,1)"><stop offset="0" style="stop-color:rgb(248,117,55);stop-opacity:0"/><stop offset="1" style="stop-color:rgb(251,168,31);stop-opacity:0"/></linearGradient>
    </defs>
</svg>
